HIERARCHY
ROOT Hips
{
	OFFSET -3.958830 18.904000 13.208200
	CHANNELS 6 Xposition Yposition Zposition Zrotation Yrotation Xrotation 
	JOINT LHipJoint
	{
		OFFSET 0.000000 0.000000 0.000000
		CHANNELS 3 Zrotation Yrotation Xrotation
		JOINT LeftUpLeg
		{
			OFFSET 1.800000 -1.400000 0.085000
			CHANNELS 3 Zrotation Yrotation Xrotation
			JOINT LeftLeg
			{
				OFFSET 2.215000 -6.000000 0.000000
				CHANNELS 3 Zrotation Yrotation Xrotation
				JOINT LeftFoot
				{
					OFFSET 2.500000 -6.900000 0.000000
					CHANNELS 3 Zrotation Yrotation Xrotation
					JOINT LeftToeBase
					{
						OFFSET 0.200000 -0.500000 1.950000
						CHANNELS 3 Zrotation Yrotation Xrotation
						End Site
						{
							OFFSET 0.000000 0.000000 0.000000
						}
					}
				}
			}
		}
	}
	JOINT RHipJoint
	{
		OFFSET 0.000000 0.000000 0.000000
		CHANNELS 3 Zrotation Yrotation Xrotation
		JOINT RightUpLeg
		{
			OFFSET -1.800000 -1.400000 0.085000
			CHANNELS 3 Zrotation Yrotation Xrotation
			JOINT RightLeg
			{
				OFFSET -2.215000 -6.000000 0.000000
				CHANNELS 3 Zrotation Yrotation Xrotation
				JOINT RightFoot
				{
					OFFSET -2.500000 -6.900000 0.000000
					CHANNELS 3 Zrotation Yrotation Xrotation
					JOINT RightToeBase
					{
						OFFSET -0.200000 -0.500000 1.950000
						CHANNELS 3 Zrotation Yrotation Xrotation
						End Site
						{
							OFFSET 0.000000 0.000000 0.000000
						}
					}
				}
			}
		}
	}
	JOINT LowerBack
	{
		OFFSET 0.000000 0.000000 0.000000
		CHANNELS 3 Zrotation Yrotation Xrotation
		JOINT Spine
		{
			OFFSET -0.087000 1.940000 -0.288900
			CHANNELS 3 Zrotation Yrotation Xrotation
			JOINT Spine1
			{
				OFFSET 0.000000 1.950000 0.060000
				CHANNELS 3 Zrotation Yrotation Xrotation
				JOINT Neck
				{
					OFFSET 0.000000 0.000000 0.000000
					CHANNELS 3 Zrotation Yrotation Xrotation
					JOINT Neck1
					{
						OFFSET 0.000000 1.600000 0.340000
						CHANNELS 3 Zrotation Yrotation Xrotation
						JOINT Head
						{
							OFFSET 0.000000 1.667000 -0.240000
							CHANNELS 3 Zrotation Yrotation Xrotation
							End Site
							{
								OFFSET 0.000000 0.000000 0.000000
							}
						}
					}
				}
				JOINT LeftShoulder
				{
					OFFSET 0.000000 0.000000 0.000000
					CHANNELS 3 Zrotation Yrotation Xrotation
					JOINT LeftArm
					{
						OFFSET 2.700000 1.550000 -0.730000
						CHANNELS 3 Zrotation Yrotation Xrotation
						JOINT LeftForeArm
						{
							OFFSET 5.450000 0.000000 0.000000
							CHANNELS 3 Zrotation Yrotation Xrotation
							JOINT LeftHand
							{
								OFFSET 3.450000 0.000000 0.000000
								CHANNELS 3 Zrotation Yrotation Xrotation
								JOINT LeftHandIndex1
								{
									OFFSET 0.750000 0.000000 0.000000
									CHANNELS 3 Zrotation Yrotation Xrotation
									End Site
									{
										OFFSET 0.000000 0.000000 0.000000
									}
								}
							}
						}
					}
				}
				JOINT RightShoulder
				{
					OFFSET 0.000000 0.000000 0.000000
					CHANNELS 3 Zrotation Yrotation Xrotation
					JOINT RightArm
					{
						OFFSET -2.700000 1.550000 -0.730000
						CHANNELS 3 Zrotation Yrotation Xrotation
						JOINT RightForeArm
						{
							OFFSET -5.450000 0.000000 0.000000
							CHANNELS 3 Zrotation Yrotation Xrotation
							JOINT RightHand
							{
								OFFSET -3.450000 0.000000 0.000000
								CHANNELS 3 Zrotation Yrotation Xrotation
								JOINT RightHandIndex1
								{
									OFFSET -0.750000 0.000000 0.000000
									CHANNELS 3 Zrotation Yrotation Xrotation
									End Site
									{
										OFFSET 0.000000 0.000000 0.000000
									}
								}
							}
						}
					}
				}
			}
		}
	}
}
MOTION
Frames: 9
Frame Time: 0.016667
1.815830 16.836120 -4.814930 -1.363650 -28.733012 6.222827 -15.064775 12.629648 4.077765 4.642864 -4.493598 -35.105631 -5.757428 7.527234 27.023885 -0.087305 4.548045 2.757437 0.239910 0.202100 0.195420 18.264858 -11.019803 2.801624 -9.033715 -0.406802 -0.837041 9.946398 -5.937815 9.680051 -0.367013 -4.347663 2.895188 0.151280 -0.004940 0.054970 -3.447485 -1.142545 -8.061575 6.828549 4.914449 15.826562 -0.952275 6.963719 6.927552 1.230351 -7.181264 -12.177547 -16.645460 7.412793 41.008051 -3.144920 4.228000 -3.533810 -24.150094 -14.129671 5.557334 -27.768239 -5.318328 -1.887899 6.667880 -20.597912 -1.211971 -3.661107 3.020115 0.126450 0.018940 0.046880 0.051800 22.220841 23.624040 7.958981 23.664828 19.218534 -0.595514 -5.581084 15.105262 -0.913723 2.585419 -1.261545 -0.023030 0.072860 -0.064190 -0.073070 
1.812570 16.833970 -4.811740 -1.318383 -27.767992 6.293130 -15.060466 12.589813 4.085764 4.189218 -4.543723 -35.479532 -5.213460 7.369602 27.235308 -0.094977 4.500881 2.775796 0.235830 0.193880 0.196220 18.271569 -11.033370 2.831848 -8.872815 -0.414216 -0.635775 10.092118 -5.938718 9.433125 -0.371759 -4.368469 2.888438 0.147630 -0.005440 0.055660 -3.466765 -1.039586 -8.098772 6.893894 4.909111 15.818992 -1.394165 7.028529 7.199656 1.594340 -6.961353 -12.548172 -15.941138 7.075583 41.066131 -3.251030 4.051550 -3.482560 -24.326152 -14.999734 6.113283 -28.077826 -4.739732 -1.583484 6.247925 -18.462865 -1.055607 -3.670089 3.021101 0.126730 0.019560 0.044720 0.048940 21.733577 24.646122 7.899362 22.894976 20.954536 0.060883 -5.030584 14.058886 -0.782102 2.610184 -1.239671 -0.024830 0.071000 -0.062090 -0.075140 
1.810980 16.833520 -4.810960 -1.232005 -26.754119 6.344082 -15.058064 12.553037 4.099779 3.663412 -4.623904 -35.872758 -4.622723 7.188086 27.452834 -0.099433 4.445324 2.797562 0.231680 0.187550 0.195180 18.275940 -11.041916 2.862104 -8.720916 -0.418450 -0.449811 10.250152 -5.937219 9.176835 -0.376224 -4.386420 2.883924 0.143390 -0.005590 0.055950 -3.480497 -0.954089 -8.142356 6.980187 4.881732 15.868091 -1.831447 7.081723 7.442334 1.967672 -6.721214 -12.938481 -15.226114 6.725161 41.114786 -3.301750 3.845400 -3.419600 -24.568573 -15.919368 6.675307 -28.441043 -4.235148 -1.231471 5.505271 -16.362877 -0.865407 -3.677274 3.023348 0.125250 0.019830 0.043230 0.047430 21.289561 25.694566 7.849202 22.075703 22.557166 0.615365 -4.532875 13.335598 -0.669123 2.631116 -1.218786 -0.024670 0.069150 -0.060980 -0.074940 
1.808900 16.832360 -4.809530 -1.144809 -25.749621 6.396673 -15.062306 12.512593 4.114079 3.167160 -4.698128 -36.306414 -4.021510 7.038708 27.799579 -0.100407 4.418426 2.809106 0.224450 0.178000 0.191860 18.276574 -11.039601 2.893180 -8.582362 -0.429108 -0.189462 10.440202 -5.931710 8.820975 -0.380684 -4.411915 2.877620 0.138150 -0.004060 0.055410 -3.481319 -0.880943 -8.186352 7.000493 4.876030 15.855099 -2.130567 7.118976 7.678585 2.321402 -6.448838 -13.279571 -14.456036 6.367554 41.162042 -3.382020 3.661750 -3.250580 -24.797545 -16.745564 7.240602 -28.992600 -3.635663 -0.898651 4.310728 -14.646346 -0.657177 -3.681816 3.026751 0.122260 0.022110 0.039060 0.045060 20.872338 26.629382 7.740353 21.310990 24.044716 1.005426 -4.290444 13.142421 -0.606473 2.642652 -1.203453 -0.026110 0.066710 -0.058430 -0.075090 
1.807270 16.831440 -4.807960 -1.057970 -24.775334 6.410698 -15.062639 12.471430 4.129713 2.650106 -4.779552 -36.727182 -3.394169 6.895780 28.242822 -0.098444 4.406352 2.814623 0.221020 0.172640 0.190720 18.281533 -11.041631 2.920469 -8.431536 -0.452066 0.110430 10.519440 -5.913564 8.489474 -0.387123 -4.434297 2.872645 0.134500 -0.005150 0.055830 -3.496107 -0.804247 -8.225226 7.147571 4.840724 15.832377 -2.462187 7.143797 7.948528 2.661712 -6.264075 -13.610909 -13.911232 6.017653 41.227647 -3.541890 3.424910 -3.166940 -24.884429 -17.497692 7.767409 -29.651932 -3.149787 -0.529275 2.826123 -13.048138 -0.454188 -3.683780 3.028328 0.119990 0.022530 0.037590 0.044100 20.325091 27.534456 7.618342 20.635961 25.481484 1.404432 -3.991221 13.076751 -0.533560 2.651779 -1.187784 -0.025230 0.064410 -0.057830 -0.074700 
1.801860 16.828110 -4.804190 -0.960551 -23.964702 6.396082 -15.060903 12.430517 4.129653 2.165406 -4.808988 -37.020236 -2.842644 6.781419 28.644357 -0.098295 4.399771 2.815989 0.224100 0.175660 0.192920 18.288904 -11.049193 2.945249 -8.346142 -0.461373 0.393872 10.650937 -5.914482 8.206334 -0.397206 -4.464105 2.862427 0.136150 -0.008910 0.057080 -3.517834 -0.712561 -8.246062 7.262600 4.833839 15.702116 -2.756961 7.170900 8.291100 2.962642 -6.154950 -13.860535 -13.503939 5.771125 41.236351 -3.658440 3.226740 -3.280170 -24.748644 -18.080715 8.260024 -30.516350 -2.689007 -0.139203 1.313273 -11.416947 -0.291727 -3.685481 3.028639 0.119720 0.020760 0.039020 0.043830 19.629933 28.323203 7.400896 20.192001 27.005988 1.843351 -3.661170 13.320178 -0.458825 2.654017 -1.174229 -0.022850 0.062540 -0.059320 -0.074530 
1.795790 16.825300 -4.797850 -0.928924 -23.287026 6.394993 -15.054409 12.395860 4.113561 1.722111 -4.778622 -37.200642 -2.301455 6.659476 28.938427 -0.099520 4.382122 2.821843 0.225230 0.177610 0.191090 18.300177 -11.060512 2.974645 -8.264811 -0.470223 0.682894 10.804137 -5.913034 7.876669 -0.407887 -4.495557 2.852641 0.137520 -0.009470 0.057080 -3.551452 -0.616221 -8.257620 7.465609 4.828438 15.497949 -3.040861 7.193439 8.663871 3.250004 -6.093159 -14.094836 -13.210947 5.712446 41.369388 -3.635400 3.111180 -3.294660 -24.454216 -18.583922 8.758215 -31.622581 -2.179907 0.209901 -0.279608 -9.933766 -0.170809 -3.686504 3.027546 0.119890 0.019430 0.039630 0.045140 18.802087 29.039596 7.149547 19.896528 28.497739 2.262479 -3.349754 13.947400 -0.377075 2.647802 -1.161880 -0.022140 0.062780 -0.059530 -0.073140 
1.789740 16.822700 -4.792230 -0.927054 -22.679795 6.404991 -15.049283 12.362041 4.093452 1.309441 -4.731006 -37.367700 -1.744546 6.533305 29.218091 -0.100224 4.365386 2.827227 0.228540 0.181500 0.191710 18.310644 -11.074154 2.999317 -8.188663 -0.468776 0.919384 10.970592 -5.922903 7.630704 -0.417608 -4.527544 2.841801 0.139840 -0.010320 0.058720 -3.581391 -0.515551 -8.261197 7.633576 4.853114 15.250617 -3.249367 7.221274 9.025425 3.520076 -6.034299 -14.247077 -12.915111 5.608887 41.445871 -3.666110 2.970270 -3.336720 -24.110385 -18.995245 9.186791 -32.851133 -1.756917 0.480752 -2.044129 -8.786565 -0.087362 -3.686682 3.028395 0.118280 0.019000 0.040250 0.046480 17.956322 29.653670 6.867893 19.664332 29.911812 2.628639 -3.136842 14.879960 -0.301712 2.634683 -1.155532 -0.019700 0.061950 -0.060960 -0.071480 
1.784690 16.823120 -4.784040 -0.903441 -22.033489 6.368057 -15.039397 12.342585 4.072131 0.853973 -4.688101 -37.438873 -1.159152 6.365257 29.378196 -0.100186 4.324028 2.843135 0.229450 0.183500 0.189340 18.322648 -11.096731 3.019526 -8.085335 -0.481821 1.167757 10.973159 -5.921257 7.487627 -0.423555 -4.552431 2.834776 0.140310 -0.009580 0.059070 -3.618322 -0.428746 -8.262455 7.899395 4.834690 15.028390 -3.424466 7.214737 9.302392 3.736380 -6.094247 -14.371883 -12.907297 5.534852 41.579574 -3.737260 2.755320 -3.250090 -23.937432 -19.336562 9.544227 -34.012761 -1.364977 0.672276 -3.767963 -7.865077 -0.041832 -3.684726 3.031439 0.113060 0.019040 0.038770 0.048230 17.383515 30.242690 6.632436 19.452037 31.149995 2.885853 -3.027300 15.944524 -0.235863 2.620555 -1.153587 -0.016280 0.061170 -0.061890 -0.067490 
